<?xml version="1.0" standalone="no"?><!DOCTYPE svg PUBLIC "-//W3C//DTD SVG 1.1//EN" "http://www.w3.org/Graphics/SVG/1.1/DTD/svg11.dtd"><svg class="icon" width="16px" height="16.00px" viewBox="0 0 1024 1024" version="1.1" xmlns="http://www.w3.org/2000/svg"><path fill="#aaa9ad" d="M1000.975611 322.355779c0-159.574369-129.365346-288.933575-288.939715-288.933575-77.705779 0-148.119479 30.851659-200.035896 80.762395-51.916417-49.910737-122.329093-80.762395-200.035896-80.762395-159.580508 0-288.939715 129.359206-288.939715 288.933575 0 18.58938 2.927679 40.772612 2.035356 33.192983 31.125905 285.407262 444.156846 655.824663 486.940255 655.824663 42.777269 0 455.807187-370.417401 486.934115-655.824663C998.065328 363.128391 1000.975611 340.944136 1000.975611 322.355779zM954.744683 350.724897C928.801824 588.507488 594.565461 913.415392 512 963.27087 429.434539 913.415392 95.173616 588.495208 69.230758 350.426091c0 0-1.753947-12.831236-1.753947-28.070312 0-134.811382 109.675912-244.457618 244.488317-244.457618 63.291488 0 123.368772 24.261567 169.233356 68.323085l30.80254 29.610388 30.7964-29.610388C588.636425 102.159728 648.743384 77.898161 712.034872 77.898161c134.811382 0 244.487294 109.645213 244.487294 244.457618C956.523189 337.882404 954.744683 350.724897 954.744683 350.724897z" /></svg>